grf
version=1
nRows=14
nColumns=37
inDegrees=no
endheader
time	ground_force_1_vx	ground_force_1_vy	ground_force_1_vz	ground_force_1_px	ground_force_1_py	ground_force_1_pz	ground_moment_1_mx	ground_moment_1_my	ground_moment_1_mz	ground_force_2_vx	ground_force_2_vy	ground_force_2_vz	ground_force_2_px	ground_force_2_py	ground_force_2_pz	ground_moment_2_mx	ground_moment_2_my	ground_moment_2_mz	ground_force_3_vx	ground_force_3_vy	ground_force_3_vz	ground_force_3_px	ground_force_3_py	ground_force_3_pz	ground_moment_3_mx	ground_moment_3_my	ground_moment_3_mz	ground_force_4_vx	ground_force_4_vy	ground_force_4_vz	ground_force_4_px	ground_force_4_py	ground_force_4_pz	ground_moment_4_mx	ground_moment_4_my	ground_moment_4_mz
      0.00000000	      0.00000000	     -0.00000000	      0.00000000	      0.00000000	      0.00000000	      0.00000000	      0.00000000	      0.00000000	      0.00000000	    -11.50815582	      6.07557297	   -735.37896729	   -346.98503783	  -1086.64716388	      0.00000000	      0.00000000	      0.00000000	   1554.14876262	      8.08717978	     -4.10610365	    -76.28624725	   -520.62602113	   -852.33139195	      0.00000000	      0.00000000	      0.00000000	     96.72318489	      0.00000000	     -0.00000000	      0.00000000	      0.00000000	      0.00000000	      0.00000000	      0.00000000	      0.00000000	      0.00000000
      0.01000000	      0.00000000	     -0.00000000	      0.00000000	      0.00000000	      0.00000000	      0.00000000	      0.00000000	      0.00000000	      0.00000000	    -11.43372631	      5.89684868	   -738.49926758	   -346.44535327	  -1086.87928697	      0.00000000	      0.00000000	      0.00000000	   1487.01387586	      8.01443924	     -3.90065144	    -74.66114044	   -520.40326743	   -857.99405307	      0.00000000	      0.00000000	     -0.00000000	    -16.60674692	      0.00000000	     -0.00000000	      0.00000000	      0.00000000	      0.00000000	      0.00000000	      0.00000000	      0.00000000	      0.00000000
      0.02000000	      0.00000000	     -0.00000000	      0.00000000	      0.00000000	      0.00000000	      0.00000000	      0.00000000	      0.00000000	      0.00000000	    -11.32973480	      6.56596899	   -739.32318115	   -346.62359199	  -1086.48203193	      0.00000000	      0.00000000	      0.00000000	   1615.96356023	      7.79191600	     -4.19573566	    -75.24397278	   -516.67691045	   -852.12264316	      0.00000000	      0.00000000	     -0.00000000	    -92.63168537	      0.00000000	     -0.00000000	      0.00000000	      0.00000000	      0.00000000	      0.00000000	      0.00000000	      0.00000000	      0.00000000
      0.03000000	      0.00000000	     -0.00000000	      0.00000000	      0.00000000	      0.00000000	      0.00000000	      0.00000000	      0.00000000	      0.00000000	    -11.53798676	      6.43229103	   -741.67785645	   -346.68780684	  -1086.78619134	      0.00000000	      0.00000000	      0.00000000	   1568.16814020	      7.39238369	     -4.19555156	    -74.19364929	   -516.77956064	   -856.02548268	      0.00000000	      0.00000000	      0.00000000	     33.58923588	      0.00000000	     -0.00000000	      0.00000000	      0.00000000	      0.00000000	      0.00000000	      0.00000000	      0.00000000	      0.00000000
      0.04000000	      0.00000000	     -0.00000000	      0.00000000	      0.00000000	      0.00000000	      0.00000000	      0.00000000	      0.00000000	      0.00000000	    -11.31476116	      6.55140114	   -745.50103760	   -346.25550026	  -1087.72324537	      0.00000000	      0.00000000	      0.00000000	   1552.92503195	      7.42220035	     -3.78333943	    -73.90401459	   -516.16393330	   -851.94583310	      0.00000000	      0.00000000	     -0.00000000	   -177.87865493	      0.00000000	     -0.00000000	      0.00000000	      0.00000000	      0.00000000	      0.00000000	      0.00000000	      0.00000000	      0.00000000
      0.05000000	      0.00000000	     -0.00000000	      0.00000000	      0.00000000	      0.00000000	      0.00000000	      0.00000000	      0.00000000	      0.00000000	    -11.29964066	      5.97173691	   -743.97985840	   -346.52112669	  -1086.62712548	      0.00000000	      0.00000000	      0.00000000	   1654.50760829	      7.49594134	     -3.40074342	    -73.84603882	   -515.62038865	   -853.61292064	      0.00000000	      0.00000000	      0.00000000	     12.99206228	      0.00000000	     -0.00000000	      0.00000000	      0.00000000	      0.00000000	      0.00000000	      0.00000000	      0.00000000	      0.00000000
      0.06000000	      0.00000000	     -0.00000000	      0.00000000	      0.00000000	      0.00000000	      0.00000000	      0.00000000	      0.00000000	      0.00000000	    -10.43907261	      6.32681751	   -746.85595703	   -346.33652662	  -1087.01502653	      0.00000000	      0.00000000	      0.00000000	   1536.90810454	      7.27428406	     -3.50322549	    -73.32183838	   -515.87998593	   -854.61822545	      0.00000000	      0.00000000	     -0.00000000	    -46.62372571	      0.00000000	     -0.00000000	      0.00000000	      0.00000000	      0.00000000	      0.00000000	      0.00000000	      0.00000000	      0.00000000
      0.07000000	      0.00000000	     -0.00000000	      0.00000000	      0.00000000	      0.00000000	      0.00000000	      0.00000000	      0.00000000	      0.00000000	    -11.07728481	      5.80864429	   -746.80273438	   -346.10266684	  -1086.76428682	      0.00000000	      0.00000000	      0.00000000	   1485.68745486	      7.24540966	     -3.54776160	    -73.37660980	   -514.28046973	   -846.11035495	      0.00000000	      0.00000000	      0.00000000	    121.72748117	      0.00000000	     -0.00000000	      0.00000000	      0.00000000	      0.00000000	      0.00000000	      0.00000000	      0.00000000	      0.00000000
      0.08000000	      0.00000000	     -0.00000000	      0.00000000	      0.00000000	      0.00000000	      0.00000000	      0.00000000	      0.00000000	      0.00000000	    -11.04460907	      5.29140234	   -746.45019531	   -345.80686452	  -1086.60509966	      0.00000000	      0.00000000	      0.00000000	   1423.90683344	      7.26067608	     -3.51650683	    -72.56441498	   -513.20303783	   -850.34549368	      0.00000000	     -0.00000000	      0.00000000	     25.63027316	      0.00000000	     -0.00000000	      0.00000000	      0.00000000	      0.00000000	      0.00000000	      0.00000000	      0.00000000	      0.00000000
      0.09000000	      0.00000000	     -0.00000000	      0.00000000	      0.00000000	      0.00000000	      0.00000000	      0.00000000	      0.00000000	      0.00000000	    -11.13600826	      5.94115353	   -748.43847656	   -345.41378208	  -1087.19666989	      0.00000000	      0.00000000	      0.00000000	   1497.07026195	      7.36299485	     -3.44454639	    -70.53564453	   -515.27951695	   -860.22730142	      0.00000000	      0.00000000	     -0.00000000	   -192.35599813	      0.00000000	     -0.00000000	      0.00000000	      0.00000000	      0.00000000	      0.00000000	      0.00000000	      0.00000000	      0.00000000
      0.10000000	      0.00000000	     -0.00000000	      0.00000000	      0.00000000	      0.00000000	      0.00000000	      0.00000000	      0.00000000	      0.00000000	    -11.17901039	      5.94100761	   -746.37890625	   -345.12574775	  -1086.68127365	      0.00000000	      0.00000000	      0.00000000	   1488.36339595	      6.83073016	     -3.15161240	    -71.63572693	   -516.42182475	   -851.26103036	      0.00000000	     -0.00000000	      0.00000000	    155.22008312	      0.00000000	     -0.00000000	      0.00000000	      0.00000000	      0.00000000	      0.00000000	      0.00000000	      0.00000000	      0.00000000
      0.11000000	      0.00000000	     -0.00000000	      0.00000000	      0.00000000	      0.00000000	      0.00000000	      0.00000000	      0.00000000	      0.00000000	    -11.12385082	      5.99917507	   -745.40649414	   -344.69093095	  -1086.28887637	      0.00000000	     -0.00000000	      0.00000000	   1434.02412950	      6.93465395	     -3.26790298	    -71.33657837	   -510.21188250	   -848.40372365	      0.00000000	      0.00000000	      0.00000000	     15.73452231	      0.00000000	     -0.00000000	      0.00000000	      0.00000000	      0.00000000	      0.00000000	      0.00000000	      0.00000000	      0.00000000
      0.12000000	      0.00000000	     -0.00000000	      0.00000000	      0.00000000	      0.00000000	      0.00000000	      0.00000000	      0.00000000	      0.00000000	    -11.01939011	      5.86712170	   -745.39379883	   -344.14748522	  -1087.02680263	      0.00000000	      0.00000000	      0.00000000	   1530.38545870	      7.00815171	     -3.39892377	    -69.54129028	   -516.83011580	   -856.28516195	      0.00000000	      0.00000000	     -0.00000000	    -65.47848424	      0.00000000	     -0.00000000	      0.00000000	      0.00000000	      0.00000000	      0.00000000	      0.00000000	      0.00000000	      0.00000000
      0.13000000	      0.00000000	     -0.00000000	      0.00000000	      0.00000000	      0.00000000	      0.00000000	      0.00000000	      0.00000000	      0.00000000	    -11.99670315	      5.63077307	   -745.60778809	   -343.91947307	  -1086.73581091	      0.00000000	      0.00000000	      0.00000000	   1413.76034601	      6.39054746	     -3.31038555	    -69.93785858	   -511.35373282	   -855.12039100	      0.00000000	     -0.00000000	      0.00000000	     56.87337721	      0.00000000	     -0.00000000	      0.00000000	      0.00000000	      0.00000000	      0.00000000	      0.00000000	      0.00000000	      0.00000000
